<?xml version="1.0" encoding="utf-8"?>
<!-- Generator: Adobe Illustrator 21.1.0, SVG Export Plug-In . SVG Version: 6.00 Build 0)  -->
<svg version="1.1" id="Layer_1" xmlns="http://www.w3.org/2000/svg" xmlns:xlink="http://www.w3.org/1999/xlink" x="0px" y="0px"
	 viewBox="0 0 1000 474" style="enable-background:new 0 0 1000 474;" xml:space="preserve">
<style type="text/css">
	.st0{fill:#3B5998;}
	.st1{fill:#0A4EA0;}
	.st2{fill:#7485A9;}
	.st3{fill:#FFFFFF;}
	.st4{fill:#0744A5;}
</style>
<g id="Layer_1_1_">
	<g>
		<path class="st0" d="M499.3,228.2c0,6.2-1.6,11-4.9,14.6c-3.2,3.6-7.7,5.3-13.3,5.3h-30V283H439v-93h41.6c5.4,0,9.7,1.5,13.1,4.5
			c3.6,3.3,5.5,7.9,5.5,13.7C499.3,214.5,499.3,221.2,499.3,228.2z M487.1,223.8v-11c0-6.2-3.3-9.4-9.8-9.4h-26.1v30.9H477
			C483.7,234.3,487.1,230.8,487.1,223.8z"/>
		<path class="st0" d="M572.1,283h-15.3l-30-35.6c-1-1.2-1.5-3.1-1.5-5.8c0-5.2,2.5-7.8,7.6-7.8l17.9-0.2c5.9,0,8.9-3.1,8.9-9.3
			v-10.7c0-6.5-3.4-9.7-10.1-9.7h-25.3V283h-12.2v-92.6h41.1c12.5,0,18.8,6.6,18.8,19.7v16c0,5.7-1.6,10.4-4.9,13.9
			c-3.2,3.5-7.5,5.3-12.8,5.3h-14.1L572.1,283z"/>
		<path class="st0" d="M635.9,243.4H596v15.7c0,6.9,3.6,10.4,10.7,10.4h31.6V283h-34.9c-6,0-10.7-1.6-14.1-4.7
			c-3.7-3.5-5.5-8.5-5.5-14.9v-52.2c0-6.4,1.6-11.5,4.9-15.2c3.3-3.7,7.8-5.5,13.6-5.5h36V204h-31.7c-7.1,0-10.6,3.4-10.6,10.2v15.9
			h39.9V243.4z"/>
		<path class="st0" d="M681.4,249.6h-33.8V240h33.8V249.6z"/>
		<path class="st0" d="M748,283h-15.3l-30-35.6c-1-1.2-1.5-3.1-1.5-5.8c0-5.2,2.5-7.8,7.6-7.8l17.9-0.2c5.9,0,8.9-3.1,8.9-9.3v-10.7
			c0-6.5-3.4-9.7-10.1-9.7h-25.3V283H688v-92.6h41.1c12.5,0,18.8,6.6,18.8,19.7v16c0,5.7-1.6,10.4-4.9,13.9
			c-3.2,3.5-7.5,5.3-12.8,5.3h-14.1L748,283z"/>
		<path class="st0" d="M811.7,243.4h-39.9v15.7c0,6.9,3.6,10.4,10.7,10.4h31.6V283h-34.9c-6,0-10.7-1.6-14.1-4.7
			c-3.7-3.5-5.5-8.5-5.5-14.9v-52.2c0-6.4,1.6-11.5,4.9-15.2c3.3-3.7,7.8-5.5,13.6-5.5h36V204h-31.7c-7.1,0-10.6,3.4-10.6,10.2v15.9
			h39.9V243.4z"/>
		<path class="st0" d="M885,203.7h-32.2c-3.5,0-6,0.7-7.6,2.1c-1.8,1.9-2.8,4.6-2.8,8v43.9c0,4.4,0.8,7.4,2.5,9.2
			c1.6,1.7,4.5,2.6,8.5,2.6h31.5V283h-36c-5.9,0-10.5-1.8-13.8-5.5c-3.2-3.7-4.9-8.8-4.9-15.3v-51.3c0-7.7,1.7-13.1,5.2-16.4
			c3-2.8,7.8-4.3,14.5-4.3H885V203.7z"/>
	</g>
	<path class="st1" d="M450.6,301.9c0,0.6-0.2,1.1-0.6,1.5c-0.4,0.3-1,0.5-1.7,0.5h-3.7v3.5H443v-9.3h5.2c0.7,0,1.2,0.1,1.6,0.5
		c0.5,0.3,0.7,0.8,0.7,1.4C450.5,300.5,450.6,301.2,450.6,301.9z M449,301.5v-1.1c0-0.6-0.4-0.9-1.2-0.9h-3.3v3.1h3.2
		C448.6,302.5,449,302.1,449,301.5z"/>
	<path class="st1" d="M464.7,307.4h-1.9l-3.7-3.5c-0.1-0.1-0.2-0.3-0.2-0.6c0-0.5,0.3-0.7,0.9-0.7h2.2c0.7,0,1.1-0.3,1.1-0.9v-1.1
		c0-0.7-0.4-0.9-1.3-0.9h-3.2v7.9h-1.5v-9.2h5.1c1.6,0,2.3,0.7,2.3,2v1.6c0,0.5-0.2,1-0.6,1.4s-0.9,0.5-1.6,0.5h-1.8L464.7,307.4z"
		/>
	<path class="st1" d="M477.7,303.4h-5v1.6c0,0.7,0.4,1,1.3,1h4v1.4h-4.4c-0.8,0-1.3-0.1-1.8-0.5c-0.5-0.3-0.7-0.9-0.7-1.5v-5.2
		c0-0.6,0.2-1.2,0.6-1.5s1-0.5,1.7-0.5h4.5v1.4h-4c-0.9,0-1.3,0.3-1.3,1v1.6h5L477.7,303.4L477.7,303.4z"/>
	<path class="st1" d="M491.9,299.4h-4c-0.4,0-0.8,0.1-0.9,0.2c-0.2,0.2-0.3,0.5-0.3,0.8v4.4c0,0.4,0.1,0.7,0.3,0.9
		c0.2,0.2,0.6,0.3,1.1,0.3h3.9v1.4h-4.5c-0.7,0-1.3-0.2-1.7-0.5c-0.4-0.3-0.6-0.9-0.6-1.6v-5.2c0-0.7,0.2-1.3,0.6-1.6
		c0.4-0.3,1-0.4,1.8-0.4h4.4L491.9,299.4L491.9,299.4z"/>
	<path class="st1" d="M500.3,307.4h-1.5v-9.3h1.5V307.4z"/>
	<path class="st1" d="M513.5,299.4h-3.9c-0.6,0-1,0.1-1.2,0.4c-0.1,0.2-0.1,0.5-0.1,1.2c0,0.3,0.1,0.5,0.4,0.7
		c0.2,0.1,0.5,0.2,1,0.2h1.6c0.7,0,1.2,0.1,1.7,0.5c0.4,0.3,0.6,0.8,0.6,1.4v1.5c0,0.6-0.2,1.2-0.6,1.5c-0.4,0.3-1,0.5-1.7,0.5h-4.4
		V306h3.9c0.7,0,1.1-0.1,1.2-0.5c0.1-0.1,0.1-0.6,0.1-1.2c0-0.6-0.4-0.9-1.3-0.9h-1.6c-0.7,0-1.2-0.1-1.7-0.5
		c-0.5-0.3-0.7-0.8-0.7-1.4V300c0-0.7,0.3-1.2,0.8-1.6c0.4-0.3,0.9-0.4,1.6-0.4h4.5v1.4H513.5z"/>
	<path class="st1" d="M521.9,307.4h-1.5v-9.3h1.5V307.4z"/>
	<path class="st1" d="M536,305.3c0,1.4-0.8,2.1-2.5,2.1h-2.3c-0.8,0-1.4-0.1-1.8-0.5c-0.5-0.3-0.7-0.9-0.7-1.6v-5.1
		c0-0.7,0.2-1.2,0.7-1.6c0.4-0.3,1-0.5,1.8-0.5h2.3c1.7,0,2.5,0.7,2.5,2.1V305.3z M534.5,304.9v-4.3c0-0.4-0.1-0.7-0.3-0.9
		c-0.2-0.1-0.6-0.3-1-0.3h-1.6c-0.5,0-0.8,0.1-1.1,0.3c-0.2,0.2-0.3,0.5-0.3,0.9v4.3c0,0.4,0.1,0.7,0.3,0.9c0.2,0.1,0.5,0.3,1,0.3
		h1.6c0.5,0,0.8-0.1,1-0.3C534.4,305.6,534.5,305.3,534.5,304.9z"/>
	<path class="st1" d="M550.3,306.3c0,0.3-0.1,0.6-0.3,0.9s-0.5,0.4-0.9,0.4s-0.6-0.1-0.8-0.3c-0.1-0.1-0.2-0.3-0.5-0.7l-3.6-6.5v7.5
		h-1.5v-8.1c0-0.9,0.4-1.4,1.2-1.4c0.4,0,0.7,0.1,0.9,0.3c0.1,0.1,0.3,0.3,0.5,0.7l3.5,6.5v-7.5h1.5L550.3,306.3L550.3,306.3z"/>
	<path class="st1" d="M585.8,307.4h-1.9l-3.7-3.5c-0.1-0.1-0.2-0.3-0.2-0.6c0-0.5,0.3-0.7,0.9-0.7h2.2c0.7,0,1.1-0.3,1.1-0.9v-1.1
		c0-0.7-0.4-0.9-1.3-0.9h-3.2v7.9h-1.5v-9.2h5.1c1.6,0,2.3,0.7,2.3,2v1.6c0,0.5-0.2,1-0.6,1.4c-0.4,0.3-0.9,0.5-1.6,0.5h-1.8
		L585.8,307.4z"/>
	<path class="st1" d="M598.8,303.4h-5v1.6c0,0.7,0.4,1,1.3,1h4v1.4h-4.4c-0.8,0-1.3-0.1-1.8-0.5c-0.5-0.3-0.7-0.9-0.7-1.5v-5.2
		c0-0.6,0.2-1.2,0.6-1.5c0.4-0.3,1-0.5,1.7-0.5h4.5v1.4h-4c-0.9,0-1.3,0.3-1.3,1v1.6h5v1.4H598.8z"/>
	<path class="st1" d="M613.1,299.4h-4c-0.4,0-0.8,0.1-0.9,0.2c-0.2,0.2-0.3,0.5-0.3,0.8v4.4c0,0.4,0.1,0.7,0.3,0.9
		c0.2,0.2,0.6,0.3,1.1,0.3h3.9v1.4h-4.5c-0.7,0-1.3-0.2-1.7-0.5c-0.4-0.3-0.6-0.9-0.6-1.6v-5.2c0-0.7,0.2-1.3,0.6-1.6
		c0.4-0.3,1-0.4,1.8-0.4h4.4L613.1,299.4L613.1,299.4z"/>
	<path class="st1" d="M627.2,305.3c0,1.4-0.8,2.1-2.5,2.1h-2.3c-0.8,0-1.4-0.1-1.8-0.5c-0.5-0.3-0.7-0.9-0.7-1.6v-5.1
		c0-0.7,0.2-1.2,0.7-1.6c0.4-0.3,1-0.5,1.8-0.5h2.3c1.7,0,2.5,0.7,2.5,2.1V305.3z M625.7,304.9v-4.3c0-0.4-0.1-0.7-0.3-0.9
		c-0.2-0.1-0.6-0.3-1-0.3h-1.6c-0.5,0-0.8,0.1-1.1,0.3c-0.2,0.2-0.3,0.5-0.3,0.9v4.3c0,0.4,0.1,0.7,0.3,0.9c0.2,0.1,0.5,0.3,1,0.3
		h1.6c0.5,0,0.8-0.1,1-0.3C625.6,305.6,625.7,305.3,625.7,304.9z"/>
	<path class="st1" d="M644.5,307.4H643v-7.3l-2.7,6.5c-0.3,0.6-0.6,0.9-1.1,0.9c-0.3,0-0.5-0.1-0.7-0.3c-0.1-0.1-0.2-0.3-0.3-0.6
		l-2.8-6.6v7.3H634v-8.1c0-0.3,0.1-0.6,0.3-0.9c0.2-0.2,0.6-0.3,1-0.3c0.6,0,1,0.3,1.3,0.9l2.7,6.6l2.7-6.6c0.2-0.6,0.7-0.9,1.3-0.9
		c0.4,0,0.7,0.1,1,0.3c0.2,0.3,0.3,0.5,0.3,0.9L644.5,307.4L644.5,307.4z"/>
	<path class="st1" d="M661.7,307.4h-1.5v-7.3l-2.7,6.5c-0.3,0.6-0.6,0.9-1.1,0.9c-0.3,0-0.5-0.1-0.7-0.3c-0.1-0.1-0.2-0.3-0.3-0.6
		l-2.8-6.6v7.3h-1.5v-8.1c0-0.3,0.1-0.6,0.3-0.9c0.2-0.2,0.6-0.3,1-0.3c0.6,0,1,0.3,1.3,0.9l2.7,6.6l2.7-6.6
		c0.2-0.6,0.7-0.9,1.3-0.9c0.4,0,0.7,0.1,1,0.3c0.2,0.3,0.3,0.5,0.3,0.9V307.4z"/>
	<path class="st1" d="M675,303.4h-5v1.6c0,0.7,0.4,1,1.3,1h4v1.4h-4.4c-0.8,0-1.3-0.1-1.8-0.5c-0.5-0.3-0.7-0.9-0.7-1.5v-5.2
		c0-0.6,0.2-1.2,0.6-1.5c0.4-0.3,1-0.5,1.7-0.5h4.5v1.4h-4c-0.9,0-1.3,0.3-1.3,1v1.6h5v1.4H675z"/>
	<path class="st1" d="M689.9,306.3c0,0.3-0.1,0.6-0.3,0.9s-0.5,0.4-0.9,0.4s-0.6-0.1-0.8-0.3c-0.1-0.1-0.2-0.3-0.5-0.7l-3.6-6.5v7.5
		h-1.5v-8.1c0-0.9,0.4-1.4,1.2-1.4c0.4,0,0.7,0.1,0.9,0.3c0.1,0.1,0.3,0.3,0.5,0.7l3.5,6.5v-7.5h1.5L689.9,306.3L689.9,306.3z"/>
	<path class="st1" d="M704.2,305.3c0,0.7-0.2,1.2-0.6,1.6c-0.4,0.4-1,0.5-1.7,0.5h-5.3v-9.3h5.3c1.5,0,2.3,0.7,2.3,2.1V305.3z
		 M702.7,304.8v-4.3c0-0.7-0.4-1.1-1.3-1.1h-3.3v6.6h3.3C702.3,306,702.7,305.6,702.7,304.8z"/>
	<path class="st1" d="M719.4,307.4h-1.6l-0.9-2.2h-4.2l-0.9,2.2h-1.6l3.4-8.4c0.2-0.5,0.6-0.8,1.2-0.8c0.6,0,1,0.3,1.2,0.8
		L719.4,307.4z M716.3,303.8l-1.7-4.1l-1.5,4.1H716.3z"/>
	<path class="st1" d="M730.4,299.4h-2.6v7.9h-1.5v-7.9h-2.6v-1.4h6.8v1.4H730.4z"/>
	<path class="st1" d="M737.9,307.4h-1.5v-9.3h1.5V307.4z"/>
	<path class="st1" d="M752,305.3c0,1.4-0.8,2.1-2.5,2.1h-2.3c-0.8,0-1.4-0.1-1.8-0.5c-0.5-0.3-0.7-0.9-0.7-1.6v-5.1
		c0-0.7,0.2-1.2,0.7-1.6c0.4-0.3,1-0.5,1.8-0.5h2.3c1.7,0,2.5,0.7,2.5,2.1V305.3z M750.5,304.9v-4.3c0-0.4-0.1-0.7-0.3-0.9
		c-0.2-0.1-0.6-0.3-1-0.3h-1.6c-0.5,0-0.8,0.1-1.1,0.3c-0.2,0.2-0.3,0.5-0.3,0.9v4.3c0,0.4,0.1,0.7,0.3,0.9c0.2,0.1,0.5,0.3,1,0.3
		h1.6c0.5,0,0.8-0.1,1-0.3C750.4,305.6,750.5,305.3,750.5,304.9z"/>
	<path class="st1" d="M766.3,306.3c0,0.3-0.1,0.6-0.3,0.9s-0.5,0.4-0.9,0.4s-0.6-0.1-0.8-0.3c-0.1-0.1-0.2-0.3-0.5-0.7l-3.6-6.5v7.5
		h-1.5v-8.1c0-0.9,0.4-1.4,1.2-1.4c0.4,0,0.7,0.1,0.9,0.3c0.1,0.1,0.3,0.3,0.5,0.7l3.5,6.5v-7.5h1.5L766.3,306.3L766.3,306.3z"/>
	<path class="st1" d="M800.8,303.4h-5v1.6c0,0.7,0.4,1,1.3,1h4v1.4h-4.4c-0.8,0-1.3-0.1-1.8-0.5c-0.5-0.3-0.7-0.9-0.7-1.5v-5.2
		c0-0.6,0.2-1.2,0.6-1.5c0.4-0.3,1-0.5,1.7-0.5h4.5v1.4h-4c-0.9,0-1.3,0.3-1.3,1v1.6h5v1.4H800.8z"/>
	<path class="st1" d="M815.7,306.3c0,0.3-0.1,0.6-0.3,0.9s-0.5,0.4-0.9,0.4s-0.6-0.1-0.8-0.3c-0.1-0.1-0.2-0.3-0.5-0.7l-3.6-6.5v7.5
		h-1.5v-8.1c0-0.9,0.4-1.4,1.2-1.4c0.4,0,0.7,0.1,0.9,0.3c0.1,0.1,0.3,0.3,0.5,0.7l3.5,6.5v-7.5h1.5L815.7,306.3L815.7,306.3z"/>
	<path class="st1" d="M829.9,305.1c0,0.7-0.2,1.3-0.6,1.6c-0.4,0.4-1,0.6-1.7,0.6H825c-0.8,0-1.5-0.2-1.9-0.5
		c-0.3-0.2-0.5-0.5-0.6-0.9c-0.1-0.2-0.1-0.5-0.1-1v-4.7c0-0.4,0-0.7,0.1-1s0.3-0.5,0.7-0.7c0.4-0.3,1-0.4,1.8-0.4h4.4v1.4h-4.1
		c-0.5,0-0.8,0.1-1,0.2c-0.2,0.1-0.3,0.5-0.3,0.9v4.4c0,0.4,0.1,0.7,0.4,0.9c0.2,0.1,0.5,0.2,0.9,0.2h2c0.8,0,1.2-0.3,1.2-1v-2.7
		h1.5v2.8H829.9z"/>
	<path class="st1" d="M838.2,307.4h-1.5v-9.3h1.5V307.4z"/>
	<path class="st1" d="M852.5,306.3c0,0.3-0.1,0.6-0.3,0.9s-0.5,0.4-0.9,0.4s-0.6-0.1-0.8-0.3c-0.1-0.1-0.2-0.3-0.5-0.7l-3.6-6.5v7.5
		h-1.5v-8.1c0-0.9,0.4-1.4,1.2-1.4c0.4,0,0.7,0.1,0.9,0.3c0.1,0.1,0.3,0.3,0.5,0.7l3.5,6.5v-7.5h1.5L852.5,306.3L852.5,306.3z"/>
	<path class="st1" d="M865.7,303.4h-5v1.6c0,0.7,0.4,1,1.3,1h4v1.4h-4.4c-0.8,0-1.3-0.1-1.8-0.5c-0.5-0.3-0.7-0.9-0.7-1.5v-5.2
		c0-0.6,0.2-1.2,0.6-1.5c0.4-0.3,1-0.5,1.7-0.5h4.5v1.4h-4c-0.9,0-1.3,0.3-1.3,1v1.6h5v1.4H865.7z"/>
	<g>
		<path class="st0" d="M275.7,86.5h-0.3h-0.1c-0.1,0-0.3,0-0.4,0c-0.3,0-0.6,0.1-0.9,0.1c-0.6,0.1-1.2,0.3-1.8,0.6
			c-1.2,0.4-2.3,1.1-3.5,2c-2.2,1.7-4.3,4.1-6.1,6.7c-1.8,2.6-3.4,5.6-4.8,8.6s-2.7,6.1-3.9,9.4c-2.3,6.4-4.1,13.1-5.8,19.9
			c-1.6,6.9-2.8,13.7-4,20.6c-2.2,13.9-3.6,27.9-4.7,42c-1,14.1-1.7,28.3-1.8,42.4c-0.1,14.1,0.3,28.3,1.2,42.4
			c0.5,7,1,14.1,1.8,21.2c0.8,7,1.7,14,2.8,21c1.2,7,2.5,13.9,4.1,20.7c1.6,6.9,3.5,13.6,5.8,20c1.2,3.3,2.5,6.4,3.9,9.4
			c1.4,3,3.1,6,4.9,8.7s3.9,5.1,6.2,7c2.3,1.9,4.8,3,7.4,3.1c1.3,0,2.6-0.1,3.9-0.6c1.3-0.4,2.6-1.1,3.9-2c2.5-1.7,4.8-4,6.9-6.7
			c2.1-2.6,3.9-5.6,5.6-8.6c1.7-3,3.2-6.1,4.5-9.4c2.8-6.4,5.2-13.1,7.1-20c2.1-6.9,3.8-13.7,5.2-20.7c3-14,4.9-28.3,6.3-42.6
			c1.3-14.3,1.9-28.7,1.9-43c0-14.4-0.6-28.7-2.1-43s-3.6-28.4-6.7-42.4c-1.6-7-3.4-13.9-5.4-20.6c-2.1-6.7-4.4-13.4-7.3-19.9
			c-1.4-3.1-2.8-6.3-4.5-9.3c-1.7-3-3.5-5.9-5.4-8.4c-1.9-2.6-4.3-4.9-6.6-6.4c-1.2-0.9-2.5-1.4-3.6-1.9
			C278,86.7,276.8,86.4,275.7,86.5L275.7,86.5z M275.7,77.7c2.2,0,4.4,0.6,6.3,1.3c1.9,0.9,3.8,1.9,5.4,3.1c1.6,1.3,3.1,2.6,4.4,4
			c1.3,1.4,2.5,3,3.6,4.6c2.2,3.1,4,6.4,5.6,9.7c1.6,3.3,3,6.7,4.3,10.1c1.3,3.4,2.3,6.9,3.4,10.4c1,3.4,1.9,7,2.7,10.6
			c1.7,7,3,14.1,4.1,21.3c2.2,14.3,3.6,28.6,4.7,43c0.9,14.4,1.4,28.7,1.3,43.2c0,14.4-0.5,28.7-1.6,43.2c-1,14.3-2.7,28.7-5.1,42.9
			c-2.5,14.1-5.6,28.3-10.6,42c-1.3,3.4-2.6,6.7-4.3,10c-1.6,3.3-3.4,6.6-5.4,9.6c-2.1,3-4.5,6-7.6,8.4c-1.6,1.1-3.2,2.3-5.2,3
			c-1.9,0.7-4,1.3-6.1,1.3s-4.3-0.3-6.2-1s-3.8-1.7-5.4-2.7c-3.4-2.3-6-5.1-8.3-8.1c-2.3-3-4.4-6.1-6.2-9.4c-1.8-3.3-3.5-6.6-4.9-10
			c-3-6.7-5.4-13.7-7.5-20.7c-2.1-7-3.9-14.1-5.4-21.3c-1.6-7.1-2.8-14.3-4-21.6c-1.2-7.3-2.1-14.4-2.7-21.7
			c-1.4-14.6-2.2-29.2-2.3-43.7c-0.3-29.2,2.1-58.6,8.4-87.3c1.6-7.1,3.4-14.3,5.6-21.3c2.2-7,4.7-14,7.6-20.9
			c1.4-3.4,3.1-6.7,4.9-10s3.9-6.4,6.2-9.6c2.3-3,5.1-6,8.4-8.3c1.7-1.1,3.5-2.1,5.6-2.9c1-0.4,2.1-0.6,3.1-0.9
			c0.5-0.1,1-0.1,1.7-0.1c0.3,0,0.5,0,0.8,0h0.4L275.7,77.7L275.7,77.7z"/>
		<path class="st0" d="M401.2,162.4l-0.3-0.4c-0.1-0.1-0.1-0.3-0.3-0.4c-0.1-0.3-0.4-0.6-0.5-0.9c-0.4-0.6-0.9-1-1.4-1.6
			c-1-1-2.2-1.9-3.5-2.4c-2.6-1.4-5.7-2.3-8.8-2.9c-3.1-0.6-6.5-0.7-9.7-0.9c-3.2,0-6.6,0.1-10,0.4c-6.6,0.7-13.3,1.9-19.9,3.4
			c-6.6,1.6-13.1,3.4-19.7,5.4c-13,4.1-25.6,9.4-38.1,15.3c-12.4,5.9-24.5,12.6-36.3,19.7c-11.8,7.3-23.2,15-34.3,23.4
			c-5.6,4.1-10.9,8.6-16.2,13c-5.3,4.6-10.5,9.1-15.4,14c-5.1,4.9-9.8,9.9-14.4,15.2c-4.5,5.3-8.9,10.7-12.8,16.6
			c-1.9,2.9-3.8,5.9-5.3,8.9c-1.7,3-3.1,6.1-4.1,9.3c-1.2,3.1-1.9,6.4-2.1,9.6c-0.1,1.6,0,3,0.4,4.4c0.3,1.4,0.8,2.7,1.4,3.9
			c1.4,2.3,3.5,4,6.2,5.1c2.6,1.1,5.7,1.9,8.7,2.1c3.1,0.3,6.3,0.3,9.6,0.1c3.2-0.1,6.5-0.6,9.7-1.1c6.5-1,13-2.7,19.3-4.6
			c3.2-1,6.3-2,9.6-3c3.1-1.1,6.3-2.3,9.5-3.4s6.2-2.4,9.3-3.7c3.1-1.3,6.2-2.7,9.3-4c6.1-2.9,12.2-5.7,18.3-8.9
			c12-6.1,23.8-12.9,35.5-20c11.5-7.1,22.9-14.7,34.1-22.7s21.9-16.3,32.3-25.3c5.2-4.4,10.1-9.1,14.9-14c4.8-4.9,9.3-10,13.5-15.4
			c2.1-2.7,4-5.4,5.7-8.3c1.8-2.9,3.4-5.9,4.7-8.9c1.3-3,2.2-6.1,2.5-9.1C402.7,167.7,402.3,164.9,401.2,162.4L401.2,162.4z
			 M407.3,158.7c1,1.9,1.8,4,2.2,6.1c0.4,2.1,0.5,4.3,0.4,6.4c-0.3,4.1-1.3,8-2.6,11.7c-1.3,3.6-3,7-4.7,10.3
			c-1.8,3.3-3.8,6.4-5.7,9.4c-4.1,6.1-8.5,11.9-13.2,17.3s-9.6,10.7-14.6,15.7c-10.1,10-20.9,19.3-32.1,27.9
			c-11.3,8.6-22.9,16.4-34.8,23.6c-12,7.3-24.4,13.9-36.9,19.9c-6.3,3-12.7,5.9-19.2,8.4c-3.2,1.3-6.5,2.6-9.7,3.9
			c-3.2,1.1-6.6,2.3-9.8,3.4c-3.4,1.1-6.6,2.1-10,3.1c-3.4,1-6.7,1.9-10.1,2.6c-6.9,1.6-13.7,2.9-20.7,3.6
			c-3.5,0.3-7.1,0.6-10.6,0.6c-3.6,0-7.3-0.3-10.9-0.9c-3.6-0.7-7.4-1.7-10.9-3.6c-1.8-1-3.5-2.1-5.1-3.6c-1.6-1.4-2.8-3.3-3.9-5.1
			c-1-2-1.7-4.1-1.9-6.3c-0.3-2.1-0.3-4.3-0.1-6.3c0.4-4,1.6-7.9,3.1-11.3c1.4-3.4,3.2-6.7,5.2-9.9c1.9-3.1,4-6,6.1-8.9
			c4.3-5.7,9.1-11,13.9-16.2c4.9-5.1,10-9.9,15.2-14.6c5.2-4.7,10.6-9.1,16.1-13.4c5.4-4.3,11-8.6,16.6-12.6
			c11.3-8.1,22.8-15.7,34.6-22.9c11.8-7.1,23.8-13.9,36.1-20.2c12.3-6.3,24.7-12,37.6-17c6.5-2.6,13-4.9,19.6-6.7
			c6.6-2,13.3-3.7,20.2-4.7c3.5-0.6,6.9-1,10.4-1.1c3.5-0.1,7.1-0.1,10.6,0.3c1.8,0.3,3.6,0.6,5.4,1c1.8,0.4,3.6,1.1,5.4,1.9
			c1.8,0.9,3.5,1.9,5.1,3.3c0.8,0.7,1.6,1.4,2.2,2.3c0.4,0.4,0.6,0.9,1,1.3c0.1,0.3,0.3,0.4,0.5,0.7L407.3,158.7L407.3,158.7
			L407.3,158.7z"/>
		<path class="st0" d="M150.3,162.6L150,163c-0.1,0.1-0.1,0.3-0.3,0.4c-0.1,0.3-0.3,0.6-0.4,0.9c-0.3,0.6-0.4,1.3-0.5,2
			c-0.3,1.4-0.4,2.9-0.3,4.4c0.1,3,0.9,6.3,2.1,9.4c1.2,3.1,2.6,6.3,4.1,9.3c1.7,3,3.4,6,5.3,8.9c3.9,5.7,8.2,11.3,12.7,16.6
			c4.5,5.3,9.3,10.3,14.2,15.3c9.8,9.9,20.5,18.9,31.5,27.3c11,8.4,22.5,16.2,34.3,23.3c11.8,7.1,24,13.7,36.3,19.7
			c12.4,5.9,25.1,11.1,38.1,15.4c6.5,2.1,13,4,19.6,5.6c3.2,0.7,6.6,1.4,10,2c3.4,0.6,6.6,1,10,1.4c3.4,0.3,6.6,0.6,10,0.4
			c3.2,0,6.6-0.3,9.7-0.9c3.1-0.6,6.2-1.4,8.8-3c1.3-0.7,2.5-1.6,3.5-2.6c1-1,1.8-2.1,2.5-3.3c1.2-2.4,1.6-5.3,1.2-8.3
			c-0.4-3-1.3-6.1-2.6-9.1c-1.3-3-2.8-6-4.7-8.7c-1.8-2.9-3.8-5.6-5.8-8.3c-4.1-5.4-8.7-10.4-13.3-15.4c-4.8-4.9-9.7-9.6-14.9-14.1
			c-10.2-9-21-17.4-32.1-25.4c-11.1-8-22.5-15.4-34.2-22.4c-11.7-7-23.6-13.6-35.6-19.7c-12-6.1-24.3-11.9-36.8-16.9
			c-6.2-2.4-12.6-4.7-18.9-6.7c-6.3-2-12.8-3.6-19.3-4.6c-3.2-0.6-6.5-0.9-9.7-1.1c-3.2-0.1-6.5-0.1-9.5,0.1c-3.1,0.3-6.1,1-8.7,2.3
			C153.6,158.6,151.6,160.3,150.3,162.6L150.3,162.6z M143.8,158.6c1-2,2.5-3.7,4-5.3c1.6-1.4,3.4-2.7,5.1-3.6
			c3.6-1.9,7.3-2.9,10.9-3.6c3.6-0.6,7.3-0.9,10.9-0.9c3.6,0,7.1,0.1,10.6,0.6c7,0.7,14,1.9,20.9,3.4c6.9,1.6,13.6,3.4,20.2,5.6
			c13.3,4.3,26.3,9.6,38.9,15.6c12.6,6,24.9,12.7,36.8,20.2c11.9,7.4,23.6,15.3,34.7,24c11.1,8.6,22,17.7,32.3,27.7
			c5.1,5,10,10.1,14.8,15.6c2.3,2.7,4.7,5.6,6.9,8.4c2.2,2.9,4.4,5.9,6.5,8.9c2.1,3,4,6.1,5.7,9.6c1.8,3.3,3.4,6.7,4.7,10.4
			c1.3,3.7,2.3,7.6,2.5,11.7c0.1,2.1,0,4.3-0.4,6.4c-0.4,2.1-1.2,4.3-2.3,6.1s-2.6,3.6-4.1,5c-1.6,1.4-3.4,2.4-5.1,3.3
			c-3.5,1.6-7.3,2.4-10.8,2.9c-3.6,0.4-7.1,0.4-10.6,0.3s-7-0.6-10.4-1.1c-6.9-1.1-13.6-2.7-20.2-4.7c-6.6-2-13.1-4.1-19.6-6.6
			c-12.8-4.9-25.4-10.6-37.7-16.9c-12.3-6.3-24.3-13-36.1-20.3c-11.8-7.3-23.3-14.9-34.6-23c-11.3-8.1-22.3-16.6-32.8-25.9
			c-5.3-4.6-10.4-9.4-15.3-14.4c-4.9-5-9.7-10.4-14-16.2c-2.2-2.9-4.3-5.9-6.2-9c-1.9-3.1-3.6-6.4-5.2-9.9c-0.8-1.7-1.4-3.6-1.9-5.4
			c-0.5-1.9-0.9-3.9-1.2-5.9c-0.3-2-0.1-4.1,0.1-6.4c0.1-1.1,0.4-2.1,0.8-3.3c0.1-0.6,0.4-1,0.5-1.6c0.1-0.3,0.3-0.6,0.4-0.7
			l0.3-0.4L143.8,158.6L143.8,158.6z"/>
		<ellipse class="st1" cx="345.2" cy="155.3" rx="13.1" ry="13.9"/>
		<ellipse class="st1" cx="304.7" cy="360.2" rx="13.1" ry="13.9"/>
		<ellipse class="st1" cx="166.1" cy="210.6" rx="13.1" ry="13.9"/>
	</g>
	<path class="st2" d="M478,365"/>
	<path class="st0" d="M281.4,239.2c-0.5,20.7-7.1,40.2-17.2,38.2c-8.7-1.8-16.5-18.4-16-39.2c0.5-20.7,8.3-38.4,17.2-38
		S281.9,218.4,281.4,239.2z"/>
	<path class="st2" d="M158.9,120.2"/>
	<path class="st3" d="M277.5,238.7c-0.3,11.2-1.7,31.1-11.2,32.5c-7.8,1.2-12.3-22.5-12-33.6s4.7-33.7,12.3-31.9
		C275.2,207.9,277.7,227.4,277.5,238.7z"/>
	<g>
		<g>
			<path class="st4" d="M266.5,236.4h33.7v-0.5l-0.2,0.2l0,0h-33.7c0,0-0.3-0.2-0.5-0.3h-0.5L266.5,236.4z"/>
		</g>
		<g>
			<polygon class="st4" points="266,236.1 265.1,237.6 268.6,238.8 			"/>
		</g>
		<g>
			<polygon class="st4" points="301.9,238.6 309.5,238.6 307.2,236.1 299.7,236.1 			"/>
		</g>
		<g>
			<polygon class="st1" points="296.6,236.6 306.4,236.5 300.2,236.4 266.4,236.4 			"/>
		</g>
		<g>
			<g>
				<polygon class="st4" points="265.1,235.1 267.4,234.1 265.5,236.1 266,236.1 268.6,233.3 265.1,235.1 				"/>
			</g>
		</g>
		<g>
			<path class="st4" d="M300.2,236l1.9-2.2h6.7l-1.9,2.2H300.2 M299.7,236.1h7.6l2.3-2.5h-7.6L299.7,236.1L299.7,236.1z"/>
		</g>
	</g>
	<path class="st0" d="M264.1,236.6c0.1,2.7,1.1,4.9,2.2,4.8c1.1,0,1.9-2.2,1.8-4.9c-0.1-2.7-1.1-4.9-2.2-4.8
		C264.9,231.8,264,233.9,264.1,236.6z"/>
</g>
<g id="Layer_3">
</g>
</svg>
